<svg height="20" viewBox="0 0 140 20" width="140" xmlns="http://www.w3.org/2000/svg"><path d="m3.35747105 0 7.16071745 11.0706655-1.84596085 2.84006-5.11370166-7.91845711v14.00773161h-3.55852599v-20zm107.83419595 1.7578125v4.12793975h3.313584v2.50329271h-3.313584v6.79068684c0 1.5446848.507822 2.2638758 2.164378 2.2638758.40116 0 .828278.0000003 1.149206-.0268106v2.5032919c-.507822.0531515-1.122305.0799628-1.683457.0799628l-.246952-.0027547c-3.164321-.0717297-4.536295-1.5485157-4.536295-4.9238685v-6.68438354h-2.431503v-2.50329271h2.431503v-4.12793975zm-91.2079914-1.7578125v20h-3.5585244v-20zm81.1638884 1.7578125v4.12793975h3.313112v2.50329271h-3.313112v6.79068684c0 1.5446848.507349 2.2638758 2.164377 2.2638758.400689 0 .828278.0000003 1.148735-.0268106v2.5032919c-.50735.0531515-1.122305.0799628-1.683457.0799628l-.246951-.0027547c-3.1642989-.0717297-4.5358238-1.5485157-4.5358238-4.9238685v-6.68438354h-2.4315032v-2.50329271h2.4315032v-4.12793975zm21.023631 3.80796371c3.981393 0 6.70692 3.00940732 6.70692 7.29680089l-.000427.1951947c-.001706.2821148-.010239.6357554-.052904.8701862h-10.207393c.294026 2.1039509 1.843919 3.5155219 3.981393 3.5155219 1.389429 0 2.538633-.6392294 3.447142-1.7577618l2.217707 1.5710257c-1.309197 1.7577608-3.286679 2.7431799-5.637948 2.7431799-4.355652 0-7.214741-2.9825964-7.214741-7.2168387 0-4.18109088 2.699097-7.21730879 6.760251-7.21730879zm-33.9188372 0c4.568976 0 5.9319762 2.45014079 5.9319762 5.99200289v8.1222946h-3.1531176v-1.1448724c-.9887413.9586076-2.4584024 1.4647224-4.0616264 1.4647224-3.0190827 0-5.2103599-1.8640642-5.2103599-4.5009406 0-2.636406 2.1912772-4.5004699 5.2103599-4.5004699 1.7103572 0 2.9926531.5061147 4.0616264 1.3316085v-1.3047974c0-1.73094994-.7480451-2.87629346-3.1531171-2.87629346-1.2558666 0-2.484832.42615227-3.5269039 1.27845694l-1.8170187-1.81091218c1.603224-1.35841943 3.6071358-2.05079939 5.7181811-2.05079939zm-59.9549521 0c4.568976 0 5.9319762 2.45014079 5.9319762 5.99200289v8.1222946h-3.1531176v-1.1448724c-.9887413.9586076-2.4584025 1.4647224-4.0616264 1.4647224-3.0195547 0-5.2103599-1.8640642-5.2103599-4.5009406 0-2.636406 2.1908052-4.5004699 5.2103599-4.5004699 1.7103572 0 2.9926531.5061147 4.0616264 1.3316085v-1.3047974c0-1.73094994-.7480451-2.87629346-3.1531171-2.87629346-1.2558666 0-2.484832.42615227-3.5269039 1.27845694l-1.8170187-1.81091218c1.603224-1.35841943 3.6071358-2.05079939 5.7181811-2.05079939zm12.0611685.32006048v13.79492111h-3.1531181v-13.79492111zm10.9073964-.32006048c2.9124207 0 4.8899024 1.81091247 4.8899024 5.16650969v8.947789h-3.1531165v-8.4952958c0-1.94402632-.855178-3.06255891-2.6721963-3.06255891l-.2434614.00740037c-1.4531958.08805934-2.761661.94853358-3.4703354 1.85713384v9.6933205h-3.1531167v-13.7944492h3.1531167v1.59783621c1.0685011-1.06538096 2.6452956-1.9176857 4.6492072-1.9176857zm23.8694343 0c2.8859911 0 4.4892141 1.78457199 4.4892141 5.08654749v9.0277512h-3.1531161v-8.5216368c0-1.94402636-.6144826-3.03621791-2.3512687-3.03621791-1.1756342 0-2.4853029.71919088-3.2064466 1.70460948.0533306.39934143.0533305.79868323.0533305 1.22483563v8.6284096h-3.1531166v-8.5216368c0-1.94402636-.5611514-3.03621791-2.3512682-3.03621791-1.2025356 0-2.4319725.66603939-3.1800176 1.57149562v9.98635909h-3.1531164v-13.7944492h3.1531164v1.38475999c1.1223036-1.01222954 2.5650629-1.70460948 4.222089-1.70460948 1.7901168 0 3.0993134.71919088 3.7940279 2.05079956 1.2025356-1.11853246 2.6990984-2.05079956 4.8365723-2.05079956zm63.3380141 0c.294026 0 .614482.02681091.881607.05315146v2.61006589c-.267125-.02681091-.721143-.05315163-1.122302-.05315163-1.62965 0-3.12621.82549387-3.927584 2.07714017v9.4270928h-3.153111v-13.7944492h3.153111v1.67732819c.934937-1.25164631 2.324363-1.99717768 4.168279-1.99717768zm-50.7019976 7.98891129c-1.7103565 0-2.8057586.6392286-2.8057586 1.9440262 0 1.3052679 1.0954021 1.9444965 2.8057586 1.9444965l.2403982-.0053385c1.1208707-.0498616 2.2212128-.4495062 3.0193792-1.2199671v-1.4379115c-.8816076-.7991533-2.0039113-1.2253056-3.2597774-1.2253056zm-59.9549521 0c-1.7103565 0-2.8057586.6392286-2.8057586 1.9440262 0 1.3052679 1.0954021 1.9444965 2.8057586 1.9444965l.2403159-.0053385c1.1205419-.0498616 2.2212951-.4495062 3.0194615-1.2199671v-1.4379115c-.8816076-.7991533-2.0039114-1.2253056-3.2597774-1.2253056zm94.3546817-5.43220766-.209253.00487262c-1.86001.08753227-3.087912 1.3496663-3.370983 3.40387564h7.107613c-.160464-2.1034803-1.630126-3.40874826-3.527377-3.40874826zm-83.3888848-8.12247984c1.0954027 0 1.9505814.8254938 1.9505814 1.9176857l-.0057511.15408875c-.0762392 1.01437935-.9015896 1.76312656-1.9448303 1.76312656-1.0958747 0-1.9505815-.8254938-1.9505815-1.91721531 0-1.0921919.8547068-1.9176857 1.9505815-1.9176857z" fill="#6200ee" fill-rule="evenodd"/></svg>